<?xml version="1.0" standalone="no"?>
<!DOCTYPE svg PUBLIC "-//W3C//DTD SVG 20010904//EN"
 "http://www.w3.org/TR/2001/REC-SVG-20010904/DTD/svg10.dtd">
<svg version="1.0" xmlns="http://www.w3.org/2000/svg"
 width="700.000000pt" height="700.000000pt" viewBox="0 0 700.000000 700.000000"
 preserveAspectRatio="xMidYMid meet">
<metadata>
Created by potrace 1.11, written by Peter Selinger 2001-2013
</metadata>
<g transform="translate(0.000000,700.000000) scale(0.100000,-0.100000)"
fill="#000000" stroke="none">
<path d="M2811 5474 c-73 -13 -172 -61 -232 -114 -49 -42 -111 -127 -124 -170
-4 -14 -13 -38 -20 -55 -7 -16 -33 -81 -56 -144 -24 -62 -48 -115 -53 -117 -6
-2 -157 -5 -336 -7 -321 -3 -326 -3 -398 -29 -235 -84 -392 -277 -419 -514
-10 -83 -8 -2242 1 -2299 31 -187 140 -346 302 -441 36 -21 104 -49 179 -72
11 -4 828 -8 1815 -10 1950 -3 1865 -5 1993 52 197 87 332 264 364 478 3 24 6
547 6 1163 0 862 -3 1134 -12 1180 -46 218 -207 396 -421 467 -60 20 -90 22
-395 26 -181 2 -333 7 -337 10 -4 4 -33 77 -66 162 -32 85 -68 173 -80 195
-50 98 -162 188 -281 226 -64 21 -82 21 -719 23 -422 1 -673 -3 -711 -10z
m879 -1259 c134 -21 351 -116 462 -202 58 -45 207 -204 243 -258 82 -126 134
-250 165 -399 23 -111 21 -336 -3 -436 -80 -327 -267 -569 -562 -730 -74 -40
-246 -97 -323 -107 -75 -10 -284 -10 -347 0 -70 11 -206 53 -274 85 -325 152
-552 446 -616 799 -14 78 -14 298 0 373 13 73 59 208 94 280 126 257 359 464
618 551 133 44 229 58 373 54 74 -2 151 -7 170 -10z"/>
<path d="M3350 3810 c-199 -53 -376 -192 -457 -360 -98 -203 -99 -401 -2 -598
35 -71 60 -103 130 -174 74 -73 103 -94 181 -132 174 -83 349 -100 527 -50
226 64 401 230 479 453 22 67 26 92 25 201 0 105 -4 136 -24 195 -78 227 -245
388 -479 460 -88 27 -287 30 -380 5z"/>
</g>
</svg>
