<svg xmlns="http://www.w3.org/2000/svg" xmlns:xlink="http://www.w3.org/1999/xlink" aria-hidden="true" style="position:absolute;width:0;height:0;overflow:hidden" version="1.1">
    <defs>
        <symbol id="icon-home" viewBox="0 0 26 28">
            <title>
                home
            </title>
            <path d="M22 15.5v7.5c0 0.547-0.453 1-1 1h-6v-6h-4v6h-6c-0.547 0-1-0.453-1-1v-7.5c0-0.031 0.016-0.063 0.016-0.094l8.984-7.406 8.984 7.406c0.016 0.031 0.016 0.063 0.016 0.094zM25.484 14.422l-0.969 1.156c-0.078 0.094-0.203 0.156-0.328 0.172h-0.047c-0.125 0-0.234-0.031-0.328-0.109l-10.813-9.016-10.813 9.016c-0.109 0.078-0.234 0.125-0.375 0.109-0.125-0.016-0.25-0.078-0.328-0.172l-0.969-1.156c-0.172-0.203-0.141-0.531 0.063-0.703l11.234-9.359c0.656-0.547 1.719-0.547 2.375 0l3.813 3.187v-3.047c0-0.281 0.219-0.5 0.5-0.5h3c0.281 0 0.5 0.219 0.5 0.5v6.375l3.422 2.844c0.203 0.172 0.234 0.5 0.063 0.703z"/>
        </symbol>
        <symbol id="icon-itunes" viewBox="0 0 32 32">
            <path d="M31.996 8.165c0-0.984-0.087-1.96-0.32-2.92-0.423-1.747-1.416-3.080-2.907-4.057-0.765-0.499-1.605-0.808-2.503-0.969-0.689-0.124-1.384-0.18-2.085-0.2-0.053-0.004-0.111-0.013-0.165-0.017h-16.032c-0.203 0.013-0.404 0.023-0.607 0.035-0.996 0.057-1.987 0.164-2.924 0.535-1.781 0.707-3.067 1.936-3.82 3.707-0.256 0.597-0.389 1.233-0.484 1.877-0.075 0.523-0.117 1.047-0.133 1.573 0 0.043-0.009 0.083-0.013 0.124v16.297c0.013 0.187 0.023 0.377 0.036 0.565 0.067 1.087 0.205 2.165 0.663 3.164 0.867 1.893 2.317 3.137 4.312 3.736 0.56 0.169 1.141 0.249 1.724 0.304 0.74 0.071 1.48 0.080 2.223 0.080h14.707c0.7 0 1.397-0.045 2.093-0.133 1.097-0.141 2.129-0.467 3.061-1.080 1.12-0.737 1.963-1.716 2.507-2.944 0.248-0.56 0.391-1.16 0.493-1.765 0.151-0.9 0.184-1.811 0.183-2.72-0.003-5.067 0-10.127-0.004-15.191zM23.432 13.485v7.616c0 0.556-0.077 1.103-0.325 1.608-0.387 0.787-1.013 1.283-1.851 1.52-0.467 0.133-0.941 0.209-1.427 0.231-1.267 0.060-2.364-0.8-2.591-2.048-0.189-1.031 0.303-2.165 1.384-2.696 0.431-0.213 0.893-0.333 1.357-0.432 0.504-0.109 1.011-0.204 1.512-0.32 0.365-0.084 0.609-0.307 0.68-0.688 0.019-0.084 0.027-0.173 0.027-0.257 0-2.42 0-4.84-0.003-7.257 0-0.083-0.013-0.167-0.035-0.247-0.053-0.2-0.2-0.324-0.405-0.312-0.213 0.013-0.424 0.047-0.633 0.088-1.013 0.2-2.027 0.404-3.040 0.608l-4.933 0.997c-0.021 0.004-0.043 0.013-0.064 0.017-0.369 0.103-0.503 0.271-0.52 0.653-0.003 0.056 0 0.115 0 0.173-0.003 3.469 0 6.939-0.004 10.407 0 0.56-0.063 1.115-0.287 1.636-0.371 0.853-1.027 1.387-1.912 1.644-0.467 0.133-0.947 0.213-1.433 0.229-1.28 0.048-2.34-0.8-2.56-2.059-0.187-1.083 0.307-2.247 1.539-2.767 0.476-0.2 0.973-0.309 1.477-0.413 0.383-0.080 0.767-0.155 1.147-0.236 0.511-0.111 0.777-0.431 0.8-0.952v-0.2c0-3.947 0-7.896 0.003-11.843 0-0.164 0.017-0.333 0.056-0.493 0.093-0.38 0.364-0.597 0.728-0.691 0.34-0.088 0.687-0.149 1.032-0.22 0.977-0.2 1.955-0.395 2.933-0.592l3.027-0.613c0.893-0.179 1.787-0.36 2.68-0.537 0.293-0.057 0.591-0.117 0.885-0.141 0.413-0.033 0.697 0.227 0.739 0.643 0.011 0.097 0.016 0.197 0.016 0.297 0.003 2.547 0.003 5.096 0 7.643z"/>
        </symbol>
        <symbol id="icon-spotify" viewBox="0 0 32 32">
            <path d="M16 0c-8.8 0-16 7.2-16 16s7.2 16 16 16 16-7.2 16-16-7.12-16-16-16zM23.361 23.12c-0.32 0.479-0.88 0.64-1.361 0.32-3.76-2.32-8.48-2.801-14.081-1.521-0.557 0.163-1.039-0.239-1.199-0.719-0.16-0.561 0.24-1.040 0.72-1.2 6.080-1.361 11.36-0.8 15.52 1.76 0.56 0.24 0.639 0.879 0.401 1.36zM25.281 18.72c-0.401 0.56-1.121 0.8-1.683 0.4-4.319-2.64-10.879-3.44-15.919-1.84-0.639 0.16-1.36-0.16-1.52-0.8s0.16-1.361 0.8-1.521c5.84-1.759 13.040-0.877 18 2.161 0.481 0.241 0.72 1.040 0.321 1.6zM25.441 14.24c-5.121-3.040-13.681-3.36-18.561-1.839-0.8 0.239-1.6-0.241-1.84-0.961-0.24-0.801 0.24-1.6 0.96-1.841 5.68-1.68 15.040-1.36 20.961 2.161 0.719 0.4 0.959 1.36 0.559 2.080-0.399 0.561-1.36 0.799-2.079 0.4z"/>
        </symbol>
        <symbol id="icon-music" viewBox="0 0 24 28">
            <title>
                music
            </title>
            <path d="M24 3.5v17.5c0 2.203-3.297 3-5 3s-5-0.797-5-3 3.297-3 5-3c1.031 0 2.063 0.187 3 0.609v-8.391l-12 3.703v11.078c0 2.203-3.297 3-5 3s-5-0.797-5-3 3.297-3 5-3c1.031 0 2.063 0.187 3 0.609v-15.109c0-0.656 0.438-1.234 1.062-1.437l13-4c0.141-0.047 0.281-0.063 0.438-0.063 0.828 0 1.5 0.672 1.5 1.5z"/>
        </symbol>
        <symbol id="icon-all" viewBox="0 0 24 28">
            <title>
                all
            </title>
            <path d="M14 21.5v-3c0-0.281-0.219-0.5-0.5-0.5h-3c-0.281 0-0.5 0.219-0.5 0.5v3c0 0.281 0.219 0.5 0.5 0.5h3c0.281 0 0.5-0.219 0.5-0.5zM18 11c0-2.859-3-5-5.688-5-2.547 0-4.453 1.094-5.797 3.328-0.141 0.219-0.078 0.5 0.125 0.656l2.063 1.563c0.078 0.063 0.187 0.094 0.297 0.094 0.141 0 0.297-0.063 0.391-0.187 0.734-0.938 1.047-1.219 1.344-1.437 0.266-0.187 0.781-0.375 1.344-0.375 1 0 1.922 0.641 1.922 1.328 0 0.812-0.422 1.219-1.375 1.656-1.109 0.5-2.625 1.797-2.625 3.313v0.562c0 0.281 0.219 0.5 0.5 0.5h3c0.281 0 0.5-0.219 0.5-0.5v0c0-0.359 0.453-1.125 1.188-1.547 1.188-0.672 2.812-1.578 2.812-3.953zM24 14c0 6.625-5.375 12-12 12s-12-5.375-12-12 5.375-12 12-12 12 5.375 12 12z"/>
        </symbol>
        <symbol id="icon-movie" viewBox="0 0 30 28">
            <title>
                movie
            </title>
            <path d="M6 25v-2c0-0.547-0.453-1-1-1h-2c-0.547 0-1 0.453-1 1v2c0 0.547 0.453 1 1 1h2c0.547 0 1-0.453 1-1zM6 19v-2c0-0.547-0.453-1-1-1h-2c-0.547 0-1 0.453-1 1v2c0 0.547 0.453 1 1 1h2c0.547 0 1-0.453 1-1zM6 13v-2c0-0.547-0.453-1-1-1h-2c-0.547 0-1 0.453-1 1v2c0 0.547 0.453 1 1 1h2c0.547 0 1-0.453 1-1zM22 25v-8c0-0.547-0.453-1-1-1h-12c-0.547 0-1 0.453-1 1v8c0 0.547 0.453 1 1 1h12c0.547 0 1-0.453 1-1zM6 7v-2c0-0.547-0.453-1-1-1h-2c-0.547 0-1 0.453-1 1v2c0 0.547 0.453 1 1 1h2c0.547 0 1-0.453 1-1zM28 25v-2c0-0.547-0.453-1-1-1h-2c-0.547 0-1 0.453-1 1v2c0 0.547 0.453 1 1 1h2c0.547 0 1-0.453 1-1zM22 13v-8c0-0.547-0.453-1-1-1h-12c-0.547 0-1 0.453-1 1v8c0 0.547 0.453 1 1 1h12c0.547 0 1-0.453 1-1zM28 19v-2c0-0.547-0.453-1-1-1h-2c-0.547 0-1 0.453-1 1v2c0 0.547 0.453 1 1 1h2c0.547 0 1-0.453 1-1zM28 13v-2c0-0.547-0.453-1-1-1h-2c-0.547 0-1 0.453-1 1v2c0 0.547 0.453 1 1 1h2c0.547 0 1-0.453 1-1zM28 7v-2c0-0.547-0.453-1-1-1h-2c-0.547 0-1 0.453-1 1v2c0 0.547 0.453 1 1 1h2c0.547 0 1-0.453 1-1zM30 4.5v21c0 1.375-1.125 2.5-2.5 2.5h-25c-1.375 0-2.5-1.125-2.5-2.5v-21c0-1.375 1.125-2.5 2.5-2.5h25c1.375 0 2.5 1.125 2.5 2.5z"/>
        </symbol>
        <symbol id="icon-ebook" viewBox="0 0 26 28">
            <title>
                ebook
            </title>
            <path d="M25.609 7.469c0.391 0.562 0.5 1.297 0.281 2.016l-4.297 14.156c-0.391 1.328-1.766 2.359-3.109 2.359h-14.422c-1.594 0-3.297-1.266-3.875-2.891-0.25-0.703-0.25-1.391-0.031-1.984 0.031-0.313 0.094-0.625 0.109-1 0.016-0.25-0.125-0.453-0.094-0.641 0.063-0.375 0.391-0.641 0.641-1.062 0.469-0.781 1-2.047 1.172-2.859 0.078-0.297-0.078-0.641 0-0.906 0.078-0.297 0.375-0.516 0.531-0.797 0.422-0.719 0.969-2.109 1.047-2.844 0.031-0.328-0.125-0.688-0.031-0.938 0.109-0.359 0.453-0.516 0.688-0.828 0.375-0.516 1-2 1.094-2.828 0.031-0.266-0.125-0.531-0.078-0.812 0.063-0.297 0.438-0.609 0.688-0.969 0.656-0.969 0.781-3.109 2.766-2.547l-0.016 0.047c0.266-0.063 0.531-0.141 0.797-0.141h11.891c0.734 0 1.391 0.328 1.781 0.875 0.406 0.562 0.5 1.297 0.281 2.031l-4.281 14.156c-0.734 2.406-1.141 2.938-3.125 2.938h-13.578c-0.203 0-0.453 0.047-0.594 0.234-0.125 0.187-0.141 0.328-0.016 0.672 0.313 0.906 1.391 1.094 2.25 1.094h14.422c0.578 0 1.25-0.328 1.422-0.891l4.688-15.422c0.094-0.297 0.094-0.609 0.078-0.891 0.359 0.141 0.688 0.359 0.922 0.672zM8.984 7.5c-0.094 0.281 0.063 0.5 0.344 0.5h9.5c0.266 0 0.562-0.219 0.656-0.5l0.328-1c0.094-0.281-0.063-0.5-0.344-0.5h-9.5c-0.266 0-0.562 0.219-0.656 0.5zM7.688 11.5c-0.094 0.281 0.063 0.5 0.344 0.5h9.5c0.266 0 0.562-0.219 0.656-0.5l0.328-1c0.094-0.281-0.063-0.5-0.344-0.5h-9.5c-0.266 0-0.562 0.219-0.656 0.5z"/>
        </symbol>
        <symbol id="icon-youtube-play" viewBox="0 0 28 28">
            <title>
                youtube-play
            </title>
            <path d="M11.109 17.625l7.562-3.906-7.562-3.953v7.859zM14 4.156c5.891 0 9.797 0.281 9.797 0.281 0.547 0.063 1.75 0.063 2.812 1.188 0 0 0.859 0.844 1.109 2.781 0.297 2.266 0.281 4.531 0.281 4.531v2.125s0.016 2.266-0.281 4.531c-0.25 1.922-1.109 2.781-1.109 2.781-1.062 1.109-2.266 1.109-2.812 1.172 0 0-3.906 0.297-9.797 0.297v0c-7.281-0.063-9.516-0.281-9.516-0.281-0.625-0.109-2.031-0.078-3.094-1.188 0 0-0.859-0.859-1.109-2.781-0.297-2.266-0.281-4.531-0.281-4.531v-2.125s-0.016-2.266 0.281-4.531c0.25-1.937 1.109-2.781 1.109-2.781 1.062-1.125 2.266-1.125 2.812-1.188 0 0 3.906-0.281 9.797-0.281v0z"/>
        </symbol>
        <symbol id="icon-tvShow" viewBox="0 0 30 28">
            <title>
                tvShow
            </title>
            <path d="M28 19.5v-15c0-0.266-0.234-0.5-0.5-0.5h-25c-0.266 0-0.5 0.234-0.5 0.5v15c0 0.266 0.234 0.5 0.5 0.5h25c0.266 0 0.5-0.234 0.5-0.5zM30 4.5v15c0 1.375-1.125 2.5-2.5 2.5h-11.5v2h5.5c0.281 0 0.5 0.219 0.5 0.5v1c0 0.281-0.219 0.5-0.5 0.5h-13c-0.281 0-0.5-0.219-0.5-0.5v-1c0-0.281 0.219-0.5 0.5-0.5h5.5v-2h-11.5c-1.375 0-2.5-1.125-2.5-2.5v-15c0-1.375 1.125-2.5 2.5-2.5h25c1.375 0 2.5 1.125 2.5 2.5z"/>
        </symbol>
        <symbol id="icon-podcast" viewBox="0 0 24 28">
            <title>
                podcast
            </title>
            <path d="M15.531 18.625c0 1.031-0.109 2.063-0.266 3.078-0.234 1.625-0.469 3.297-0.859 4.891-0.281 1.141-1.344 1.406-2.375 1.406s-2.094-0.266-2.375-1.406c-0.391-1.594-0.625-3.266-0.859-4.891-0.156-1.016-0.266-2.047-0.266-3.078 0-2.109 1.703-2.625 3.5-2.625s3.5 0.516 3.5 2.625zM24 12c0 5.063-3.125 9.391-7.562 11.156-0.172 0.063-0.359-0.094-0.328-0.281 0.047-0.328 0.094-0.672 0.156-1.031 0.031-0.25 0.063-0.5 0.094-0.734 0.016-0.094 0.063-0.156 0.141-0.187 3.25-1.656 5.5-5.031 5.5-8.922 0-5.703-4.781-10.297-10.547-9.984-5.281 0.281-9.484 4.781-9.453 10.063 0.031 3.891 2.297 7.25 5.563 8.875 0.078 0.031 0.125 0.109 0.141 0.187 0.031 0.219 0.063 0.453 0.094 0.703 0.063 0.375 0.109 0.719 0.172 1.062 0.031 0.187-0.172 0.344-0.344 0.266-4.641-1.813-7.875-6.438-7.609-11.766 0.297-6.047 5.172-11 11.219-11.375 6.969-0.438 12.766 5.094 12.766 11.969zM15.531 11.5c0 1.937-1.563 3.5-3.5 3.5s-3.5-1.563-3.5-3.5 1.563-3.5 3.5-3.5 3.5 1.563 3.5 3.5zM20.031 12c0 2.578-1.234 4.891-3.125 6.344-0.156 0.125-0.375 0.016-0.406-0.187-0.047-0.438-0.172-0.953-0.453-1.437-0.063-0.094-0.047-0.219 0.047-0.313 1.188-1.094 1.937-2.656 1.937-4.406 0-3.531-3.078-6.359-6.687-5.969-2.766 0.313-5.016 2.594-5.281 5.375-0.203 1.969 0.578 3.781 1.906 5 0.094 0.094 0.109 0.219 0.047 0.313-0.281 0.484-0.406 1-0.453 1.453-0.031 0.187-0.25 0.297-0.406 0.172-1.937-1.5-3.172-3.859-3.125-6.516 0.094-4.156 3.469-7.625 7.609-7.812 4.594-0.219 8.391 3.437 8.391 7.984z"/>
        </symbol>
    </defs>
</svg>
